<?xml version="1.0" standalone="no"?>
<!DOCTYPE svg PUBLIC "-//W3C//DTD SVG 20010904//EN"
 "http://www.w3.org/TR/2001/REC-SVG-20010904/DTD/svg10.dtd">
<svg version="1.0" xmlns="http://www.w3.org/2000/svg"
 width="1888.000000pt" height="2240.000000pt" viewBox="0 0 1888.000000 2240.000000"
 preserveAspectRatio="xMidYMid meet">

<g transform="translate(0.000000,2240.000000) scale(0.100000,-0.100000)"
fill="#000000" stroke="none">
<path d="M5646 21919 c-23 -56 -297 -793 -408 -1099 -33 -91 -74 -201 -90
-245 -47 -124 -149 -403 -217 -590 -34 -93 -68 -186 -76 -205 -8 -19 -44 -116
-81 -215 -36 -99 -102 -277 -146 -395 -44 -118 -95 -258 -113 -310 -18 -52
-63 -176 -100 -275 -37 -99 -82 -223 -100 -275 -18 -52 -70 -194 -115 -315
-96 -257 -142 -382 -234 -635 -37 -102 -109 -297 -161 -435 -126 -339 -205
-552 -220 -600 -7 -22 -34 -94 -60 -160 -66 -170 -158 -419 -275 -745 -27 -74
-81 -223 -121 -330 -39 -107 -88 -242 -109 -300 -52 -142 -92 -252 -195 -530
-48 -129 -112 -302 -142 -385 -30 -82 -85 -233 -123 -335 -155 -415 -234 -630
-265 -720 -18 -52 -91 -250 -163 -440 -71 -190 -165 -444 -210 -565 -44 -121
-151 -411 -238 -645 -86 -234 -219 -596 -296 -805 -77 -209 -169 -459 -205
-555 -72 -194 -155 -423 -358 -980 -75 -206 -154 -421 -176 -477 -21 -56 -39
-104 -39 -107 0 -4 167 -5 371 -4 l371 3 70 185 c38 102 91 244 118 315 62
167 157 420 175 465 8 19 48 127 91 240 42 113 91 243 109 290 41 103 254 675
265 710 5 14 51 138 103 275 104 274 436 1154 472 1250 75 202 243 651 337
900 60 160 135 360 167 445 184 493 527 1407 556 1480 44 111 183 487 246 665
27 77 54 149 59 160 11 23 25 62 121 320 38 105 76 206 84 225 7 19 35 91 60
160 44 116 123 323 146 379 6 13 30 81 55 150 25 69 49 135 54 146 9 20 65
171 100 270 10 28 38 102 62 165 25 63 61 162 82 220 21 58 42 114 47 125 12
27 115 304 124 335 4 14 15 43 25 65 22 49 66 167 115 305 21 58 46 124 56
147 11 24 19 46 19 50 0 5 13 42 29 83 17 41 54 140 84 220 288 773 267 720
278 720 4 0 12 -15 17 -32 6 -18 31 -89 57 -158 26 -69 59 -154 72 -190 14
-36 38 -101 53 -145 16 -44 76 -206 135 -360 92 -243 201 -533 330 -875 19
-52 44 -117 54 -145 29 -74 83 -224 131 -360 23 -66 48 -133 55 -150 45 -105
44 -87 46 -812 0 -378 2 -713 4 -743 2 -30 6 -712 9 -1515 4 -803 8 -1656 11
-1895 3 -239 7 -781 10 -1205 3 -423 8 -1088 11 -1476 l7 -706 -708 -6 c-390
-4 -1311 -7 -2047 -7 l-1338 0 -11 -28 c-6 -15 -69 -198 -140 -407 -145 -428
-384 -1131 -579 -1705 -158 -462 -460 -1351 -499 -1470 -16 -47 -111 -326
-211 -620 -100 -294 -250 -740 -335 -990 -84 -250 -185 -548 -224 -661 -39
-114 -71 -212 -71 -218 0 -13 781 -15 814 -2 20 8 247 680 1036 3071 150 454
389 1177 532 1607 l260 783 1764 0 1764 0 0 -262 c0 -145 2 -481 5 -748 8
-743 24 -2460 31 -3390 4 -459 8 -842 10 -850 1 -8 3 -61 3 -118 l1 -102 398
2 397 3 -3 610 c-2 336 -7 1033 -12 1550 -11 1059 -25 2888 -25 3129 l0 159
1588 -2 c1449 -2 1587 -1 1587 14 0 16 -106 311 -325 905 -142 384 -194 527
-205 560 -4 14 -27 75 -50 135 -23 61 -70 189 -105 285 -175 488 -210 584
-295 815 -51 138 -125 340 -165 450 -77 213 -161 441 -325 885 -56 151 -117
320 -136 375 -20 55 -58 159 -84 230 -59 159 -272 738 -342 930 -28 77 -86
235 -129 350 -42 116 -118 325 -169 465 -50 140 -113 314 -140 385 -55 146
-187 509 -230 630 -15 44 -53 148 -85 230 -31 83 -83 224 -115 315 -32 91 -75
208 -95 260 -20 52 -42 113 -49 135 -8 22 -48 132 -91 245 -42 113 -83 223
-90 245 -11 31 -15 139 -17 456 l-3 417 55 6 c264 29 1281 51 1705 36 593 -21
1308 -88 1700 -160 55 -10 154 -28 220 -40 576 -103 1173 -281 1620 -484 195
-89 241 -111 250 -117 6 -4 44 -25 85 -47 405 -215 770 -502 1045 -822 154
-180 225 -283 329 -481 202 -385 313 -791 346 -1272 26 -377 -51 -859 -195
-1217 -99 -247 -268 -540 -424 -740 -488 -621 -1177 -1130 -2051 -1517 -69
-30 -126 -57 -128 -58 -2 -2 26 -83 61 -181 36 -99 102 -282 147 -409 45 -126
118 -327 162 -445 44 -118 118 -321 165 -450 46 -129 111 -307 143 -395 104
-284 176 -482 320 -880 77 -214 147 -406 155 -425 7 -19 28 -75 45 -125 18
-49 55 -151 82 -225 28 -74 56 -153 63 -175 7 -22 52 -146 100 -275 48 -129
106 -289 130 -355 23 -66 77 -214 120 -330 99 -270 235 -643 245 -675 4 -14
83 -230 175 -480 92 -250 194 -529 227 -620 32 -91 77 -212 98 -270 22 -58 89
-240 149 -406 61 -166 119 -324 131 -353 11 -28 20 -54 20 -56 0 -3 -1408 -5
-3129 -5 l-3129 0 -7 -62 c-3 -35 -5 -196 -3 -358 l3 -295 4002 0 c2201 0
4004 3 4007 6 3 3 6 3583 6 7955 l0 7949 -330 3 -330 2 -2 -7917 -3 -7918 -22
60 c-11 33 -71 202 -133 375 -61 173 -132 371 -157 440 -25 69 -96 269 -158
445 -63 176 -155 435 -205 575 -50 140 -106 298 -125 350 -18 52 -54 154 -80
225 -25 72 -77 218 -115 325 -37 107 -129 364 -203 570 -74 206 -165 461 -202
565 -37 105 -95 269 -130 365 -35 96 -89 247 -120 335 -156 443 -190 537 -265
745 -45 124 -112 313 -150 420 -38 107 -119 337 -180 510 -225 635 -283 800
-360 1020 -44 124 -106 302 -139 395 -34 94 -61 175 -61 180 0 6 48 32 108 60
145 67 460 244 607 339 144 94 345 244 475 356 123 105 410 390 509 505 352
408 622 922 756 1440 35 134 84 388 107 555 18 128 18 770 0 895 -54 386 -134
715 -238 984 -146 376 -328 676 -598 986 -271 311 -674 635 -1081 867 -483
275 -1110 515 -1745 668 -370 88 -761 162 -1085 205 -489 64 -575 73 -965 99
-746 51 -1735 47 -2709 -13 -321 -19 -279 -36 -339 139 -22 63 -59 165 -82
225 -23 61 -62 166 -86 235 -25 69 -59 159 -75 200 -16 41 -65 176 -110 300
-44 124 -98 272 -119 330 -21 58 -55 150 -75 205 -19 55 -39 109 -44 120 -5
11 -48 130 -97 265 -48 135 -115 322 -150 415 -34 94 -110 303 -169 465 -59
162 -109 297 -111 299 -2 2 -10 -11 -18 -30z m1896 -7206 c139 -376 244 -657
368 -983 56 -146 200 -528 321 -850 121 -322 249 -661 284 -755 35 -93 100
-264 143 -380 109 -287 276 -729 322 -850 21 -55 93 -246 160 -425 67 -179
134 -359 150 -400 16 -41 99 -262 184 -490 85 -228 173 -462 196 -520 22 -58
40 -111 40 -118 0 -10 -226 -12 -1117 -10 l-1118 3 -6 335 c-4 184 -9 857 -13
1495 -3 638 -8 1225 -11 1305 -3 80 -7 755 -10 1500 -3 745 -8 1372 -11 1393
-3 20 -2 37 3 37 5 0 56 -129 115 -287z"/>
<path d="M915 1219 c-149 -15 -288 -100 -359 -221 -32 -55 -66 -184 -66 -252
1 -129 48 -254 131 -341 88 -94 212 -145 351 -145 166 0 288 52 288 122 0 43
-16 65 -54 78 -28 9 -42 7 -87 -11 -116 -47 -273 -21 -354 59 -86 84 -119 239
-76 352 44 116 112 177 224 200 65 13 113 8 203 -21 70 -23 102 -16 130 25 35
55 -3 103 -104 134 -77 24 -142 30 -227 21z"/>
<path d="M2205 1216 c-202 -49 -355 -249 -355 -465 0 -189 110 -371 273 -451
59 -29 80 -34 166 -38 81 -4 111 -1 168 16 280 86 415 427 275 699 -15 29 -54
80 -86 113 -117 119 -280 165 -441 126z m246 -179 c61 -35 93 -72 126 -142 24
-52 28 -72 28 -150 0 -76 -5 -99 -26 -146 -31 -65 -82 -119 -142 -151 -62 -33
-164 -31 -233 4 -60 31 -118 93 -148 157 -17 37 -21 65 -21 141 0 110 18 160
81 229 63 70 118 92 220 87 55 -2 82 -9 115 -29z"/>
<path d="M5135 1216 c-138 -34 -212 -115 -222 -241 -7 -79 10 -137 53 -185 50
-55 121 -87 258 -115 133 -28 182 -52 203 -102 22 -53 3 -96 -55 -130 -87 -51
-237 -32 -331 42 -54 43 -91 45 -128 9 -52 -53 -10 -130 102 -185 78 -38 160
-52 265 -46 206 12 325 116 324 282 -2 160 -82 231 -317 279 -167 35 -209 62
-211 137 -1 34 5 46 31 69 73 65 192 65 316 1 43 -23 84 -41 91 -41 18 0 54
42 56 65 6 56 -12 80 -92 121 -98 50 -237 66 -343 40z"/>
<path d="M10844 1216 c-92 -21 -170 -64 -240 -132 -111 -107 -153 -238 -133
-415 16 -139 83 -250 198 -328 94 -63 139 -76 276 -76 127 0 200 16 257 56 53
38 43 116 -20 140 -22 9 -40 6 -92 -13 -141 -50 -282 -21 -369 78 -79 90 -101
244 -49 355 76 165 231 224 425 160 69 -23 73 -23 98 -7 37 24 48 60 30 95
-36 71 -242 118 -381 87z"/>
<path d="M14395 1215 c-78 -21 -118 -41 -173 -85 -68 -53 -117 -127 -147 -223
-63 -197 -8 -403 143 -538 93 -84 189 -115 335 -106 76 4 99 10 163 42 174 85
264 238 264 446 0 230 -133 406 -351 464 -67 18 -168 18 -234 0z m259 -179
c94 -55 138 -135 144 -262 6 -118 -13 -184 -69 -248 -65 -73 -119 -100 -203
-100 -122 -1 -211 59 -269 182 -24 51 -29 76 -30 135 -1 156 68 264 202 314
56 21 171 10 225 -21z"/>
<path d="M3463 1196 l-28 -24 -3 -389 c-2 -213 0 -407 3 -431 8 -55 34 -82 80
-82 69 0 69 3 75 342 l5 302 155 -195 c85 -107 188 -237 228 -289 116 -148
129 -160 178 -160 25 0 50 7 63 18 21 17 21 22 22 447 0 237 -2 437 -6 447 -9
23 -57 40 -89 32 -55 -13 -56 -22 -56 -352 l0 -304 -68 88 c-232 304 -439 561
-458 568 -33 13 -74 5 -101 -18z"/>
<path d="M6523 1210 c-187 -3 -306 -9 -312 -15 -6 -6 -13 -24 -17 -41 -4 -24
0 -37 19 -60 25 -29 26 -29 154 -32 l128 -3 0 -371 0 -370 28 -24 c38 -32 90
-32 122 1 l25 24 0 371 0 370 113 0 c122 0 152 9 176 51 17 31 8 74 -18 88
-27 15 -84 17 -418 11z"/>
<path d="M7803 1212 c-158 -2 -163 -3 -178 -26 -14 -20 -15 -80 -13 -449 3
-476 0 -454 74 -464 30 -4 45 0 64 15 24 20 25 24 28 176 l3 156 140 0 c208 0
228 -14 243 -164 12 -117 69 -187 155 -190 90 -2 117 61 57 133 -25 30 -37 55
-41 89 -11 87 -26 126 -66 166 l-39 39 39 33 c120 103 123 310 6 413 -83 73
-128 80 -472 73z m325 -168 c78 -54 65 -226 -20 -270 -20 -10 -68 -14 -178
-14 l-150 0 0 150 0 150 163 0 c131 0 167 -3 185 -16z"/>
<path d="M9075 1195 l-25 -24 0 -294 c0 -359 6 -389 96 -486 66 -71 133 -107
224 -120 190 -26 357 67 419 233 20 53 21 76 21 362 l0 305 -25 24 c-13 14
-34 25 -45 25 -24 0 -61 -18 -72 -34 -4 -6 -8 -129 -8 -273 0 -304 -6 -348
-59 -406 -104 -116 -271 -101 -354 33 -21 33 -22 48 -27 338 l-5 304 -24 19
c-33 27 -86 25 -116 -6z"/>
<path d="M11863 1212 c-27 -4 -53 -38 -53 -69 0 -12 11 -35 24 -50 24 -27 27
-28 150 -32 l126 -3 0 -369 0 -370 25 -24 c30 -31 82 -33 119 -4 l26 20 2 377
3 376 125 1 c137 0 165 9 175 55 8 37 -10 78 -38 85 -24 6 -646 12 -684 7z"/>
<path d="M13245 1195 l-25 -24 0 -421 0 -422 29 -29 c51 -51 123 -36 140 29 5
21 8 215 8 440 l-2 404 -28 24 c-38 32 -90 32 -122 -1z"/>
<path d="M15655 1195 l-25 -24 0 -429 0 -429 23 -21 c31 -29 87 -29 113 -1 18
19 19 44 24 323 l5 301 75 -96 c338 -433 422 -538 436 -543 31 -12 82 -6 105
13 l24 19 2 422 c3 463 2 472 -55 485 -32 6 -75 -7 -89 -27 -4 -7 -10 -150
-13 -317 l-5 -303 -35 48 c-64 90 -442 569 -462 587 -31 26 -93 23 -123 -8z"/>
</g>
</svg>
