<?xml version="1.0" encoding="utf-8"?>
<!-- Generator: Adobe Illustrator 27.8.0, SVG Export Plug-In . SVG Version: 6.00 Build 0)  -->
<svg version="1.1" id="Calque_1" xmlns="http://www.w3.org/2000/svg" xmlns:xlink="http://www.w3.org/1999/xlink" x="0px" y="0px"
	 viewBox="0 0 595.3 256.8" style="enable-background:new 0 0 595.3 256.8;" xml:space="preserve">
<style type="text/css">
	.st0{fill:#AA7B60;}
	.st1{fill:none;}
</style>
<g>
	<g>
		<circle class="st0" cx="466.1" cy="93.3" r="7.7"/>
		<path class="st0" d="M142.6,168c-4.7-1-8.4-2.3-11.1-4v-12.9c3.1,1.9,6.9,3.5,11.2,4.6c4.3,1.2,8.4,1.7,12.3,1.7
			c3.9,0,6.7-0.3,8.4-1c1.8-0.7,2.6-1.9,2.6-3.8c0-1.4-0.5-2.6-1.4-3.6c-0.9-0.9-2.4-1.8-4.5-2.5c-2.1-0.8-5.2-1.7-9.5-2.8
			c-4.8-1.4-8.6-2.8-11.4-4.2c-2.8-1.4-4.9-3.3-6.3-5.5c-1.4-2.2-2.1-5.1-2.1-8.6c0-5.8,2.3-10.1,6.9-13.1
			c4.6-2.9,10.8-4.4,18.6-4.4c4,0,8,0.4,12,1.1c4,0.8,7.1,1.8,9.3,3.2v12.4c-2.4-1.4-5.3-2.6-8.8-3.5c-3.5-0.9-7-1.3-10.6-1.3
			c-3.9,0-6.9,0.4-8.9,1.1c-2,0.8-3,2.2-3,4.4c0,1.4,0.5,2.6,1.6,3.4c1.1,0.8,2.5,1.6,4.3,2.2c1.8,0.6,5,1.5,9.6,2.7
			c5,1.4,8.9,2.9,11.7,4.5c2.8,1.6,4.8,3.5,6,5.8c1.2,2.3,1.8,5.1,1.8,8.4c0,5.1-2.2,9.3-6.6,12.4s-10.7,4.6-19,4.6
			C151.8,169.5,147.4,169,142.6,168z"/>
		<path class="st0" d="M200.9,168c-4.7-1-8.4-2.3-11.1-4v-12.9c3.1,1.9,6.9,3.5,11.2,4.6c4.3,1.2,8.4,1.7,12.3,1.7
			c3.9,0,6.7-0.3,8.4-1c1.8-0.7,2.6-1.9,2.6-3.8c0-1.4-0.5-2.6-1.4-3.6c-0.9-0.9-2.4-1.8-4.5-2.5c-2.1-0.8-5.2-1.7-9.5-2.8
			c-4.8-1.4-8.6-2.8-11.4-4.2s-4.9-3.3-6.3-5.5c-1.4-2.2-2.1-5.1-2.1-8.6c0-5.8,2.3-10.1,6.9-13.1c4.6-2.9,10.8-4.4,18.6-4.4
			c4,0,8,0.4,12,1.1c4,0.8,7.1,1.8,9.3,3.2v12.4c-2.4-1.4-5.3-2.6-8.8-3.5c-3.5-0.9-7-1.3-10.6-1.3c-3.9,0-6.9,0.4-8.9,1.1
			c-2,0.8-3,2.2-3,4.4c0,1.4,0.5,2.6,1.6,3.4c1.1,0.8,2.5,1.6,4.3,2.2c1.8,0.6,5,1.5,9.6,2.7c5,1.4,8.9,2.9,11.7,4.5
			c2.8,1.6,4.8,3.5,6,5.8c1.2,2.3,1.8,5.1,1.8,8.4c0,5.1-2.2,9.3-6.6,12.4c-4.4,3.1-10.7,4.6-19,4.6
			C210.1,169.5,205.7,169,200.9,168z"/>
		<path class="st0" d="M494.9,168c-4.7-1-8.4-2.3-11.1-4v-12.9c3.1,1.9,6.9,3.5,11.2,4.6c4.3,1.2,8.4,1.7,12.3,1.7
			c3.9,0,6.7-0.3,8.4-1c1.8-0.7,2.6-1.9,2.6-3.8c0-1.4-0.5-2.6-1.4-3.6c-0.9-0.9-2.4-1.8-4.5-2.5c-2.1-0.8-5.2-1.7-9.5-2.8
			c-4.8-1.4-8.6-2.8-11.4-4.2s-4.9-3.3-6.3-5.5c-1.4-2.2-2.1-5.1-2.1-8.6c0-5.8,2.3-10.1,6.9-13.1c4.6-2.9,10.8-4.4,18.6-4.4
			c4,0,8,0.4,12,1.1c4,0.8,7.1,1.8,9.3,3.2v12.4c-2.4-1.4-5.3-2.6-8.8-3.5c-3.5-0.9-7-1.3-10.6-1.3c-3.9,0-6.9,0.4-8.9,1.1
			c-2,0.8-3,2.2-3,4.4c0,1.4,0.5,2.6,1.6,3.4c1.1,0.8,2.5,1.6,4.3,2.2c1.8,0.6,5,1.5,9.6,2.7c5,1.4,8.9,2.9,11.7,4.5
			c2.8,1.6,4.8,3.5,6,5.8c1.2,2.3,1.8,5.1,1.8,8.4c0,5.1-2.2,9.3-6.6,12.4c-4.4,3.1-10.7,4.6-19,4.6
			C504.1,169.5,499.7,169,494.9,168z"/>
		<path class="st0" d="M92.2,121.2c9.7,0,17.5,7.9,17.5,17.5c0,9.7-7.9,17.5-17.5,17.5s-17.5-7.9-17.5-17.5
			C74.6,129.1,82.5,121.2,92.2,121.2 M92.2,108c-17,0-30.7,13.8-30.7,30.7c0,17,13.8,30.7,30.7,30.7s30.7-13.8,30.7-30.7
			C122.9,121.8,109.1,108,92.2,108L92.2,108z"/>
		<rect x="459.6" y="109.4" class="st0" width="13.2" height="58.6"/>
		<path class="st0" d="M419.8,121.2c9.7,0,17.5,7.9,17.5,17.5c0,9.7-7.9,17.5-17.5,17.5c-9.7,0-17.5-7.9-17.5-17.5
			C402.2,129.1,410.1,121.2,419.8,121.2 M419.8,108c-17,0-30.7,13.8-30.7,30.7s13.8,30.7,30.7,30.7c17,0,30.7-13.8,30.7-30.7
			S436.7,108,419.8,108L419.8,108z"/>
		<path class="st0" d="M294.5,109.4v4.1c-5-3.6-11.2-5.5-18-5.5c-16.4,0-29.7,13.8-29.7,30.8c0,17,13.3,30.8,29.7,30.8
			c6.8,0,13-1.9,18-5.5v4.1h13.6v-58.6H294.5z M278.3,157c-10,0-17.8-8-17.8-18.3s7.8-18.3,17.8-18.3c7,0,12.4,2.7,16.2,8V149
			C290.7,154.3,285.3,157,278.3,157z"/>
		<path class="st0" d="M352.2,107.9c-6.8,0-13,1.9-18,5.5V85.6h-13.6v58.2h13.6v-15.3c3.8-5.3,9.2-8,16.2-8c10,0,17.8,8,17.8,18.3
			c0,10.3-7.8,18.3-17.8,18.3c-3.6,0-6.8-0.7-9.6-2.2v12.6c3.5,1.3,7.4,2.1,11.4,2.1c16.4,0,29.7-13.8,29.7-30.8
			C381.9,121.7,368.5,107.9,352.2,107.9z"/>
	</g>
	
		<rect x="194.3" y="-170.1" transform="matrix(-1.836970e-16 1 -1 -1.836970e-16 425.1537 -170.1219)" class="st1" width="206.8" height="595.3"/>
</g>
</svg>
